:version 1.10
:name ASF
:units
  mass 1
  length 1
  angle deg
:documentation
  ASF file generated by Kaydara
:root
  axis xyz
  order  tx ty tz rx ry rz
  position 0 0 0
  orientation 0 0 0
:bonedata
  begin
    id 1
    name RightUpLegDummy
    direction -0.718183 -0.695806 0.00816078
    length 4.904
    axis 0 0 0 xyz
  end
  begin
    id 2
    name RightUpLeg
    direction -0.00334265 -0.999142 0.0412837
    length 17.4976
    axis -0.59612 0.00940841 -0.192072 xyz
    dof rx ry rz
  end
  begin
    id 3
    name RightLeg
    direction 0.000365068 -0.988824 -0.149089
    length 16.5821
    axis 6.58657 0.0604092 -0.318554 xyz
    dof rx ry rz
  end
  begin
    id 4
    name RightFoot
    direction 0.00079069 -0.460991 0.887405
    length 3.77069
    axis 0.000105557 -0.120464 -0.188919 xyz
    dof rx ry rz
  end
  begin
    id 5
    name RightToes
    direction 0.00124768 -0.014065 0.9999
    length 3.85082
    axis 0.00053932 0.542178 -0.142707 xyz
    dof rx ry rz
  end
  begin
    id 6
    name SpineDummy
    direction 8.3039e-015 1 4.58682e-016
    length 4.6813
    axis 0 0 0 xyz
  end
  begin
    id 7
    name Spine
    direction 4.12799e-006 0.999988 0.00494944
    length 10.1015
    axis -0.00149944 0.000129667 -0.000235877 xyz
    dof rx ry rz
  end
  begin
    id 8
    name Spine1
    direction 0 0 0
    length 0
    axis -0.00160567 0.000129431 -0.000308381 xyz
    dof rx ry rz
  end
  begin
    id 9
    name HEadDummy
    direction 5.38513e-006 0.999999 0.00127044
    length 3.43865
    axis -0.00160567 0.000129431 -0.000308381 xyz
  end
  begin
    id 10
    name HEad
    direction -0.0226495 0.980942 0.192974
    length 5.12695
    axis -0.00160642 -0.114462 -0.000307946 xyz
    dof rx ry rz
  end
  begin
    id 11
    name LeftShoulder1Dummy
    direction 0.99889 -0.0402564 -0.0244456
    length 3.5433
    axis -0.00160567 0.000129431 -0.000308381 xyz
  end
  begin
    id 12
    name LeftShoulder1
    direction 0.999464 -0.00142945 0.0326977
    length 4.05031
    axis 0.393425 -0.0796525 -0.0507861 xyz
    dof rx ry rz
  end
  begin
    id 13
    name LeftArm
    direction 0.998564 -0.000899612 -0.053557
    length 10.3537
    axis -22.9476 0.126974 0.960871 xyz
    dof rx ry rz
  end
  begin
    id 14
    name LeftForeArm
    direction 0.998903 0.00865904 0.0460121
    length 8.70632
    axis -9.91856 -0.0656997 -0.178106 xyz
    dof rx ry rz
  end
  begin
    id 15
    name LeftHand
    direction 0.992938 -0.0411687 0.11126
    length 5.32135
    axis -0.00981066 -0.00340928 0.18486 xyz
    dof rx ry rz
  end
  begin
    id 16
    name RightShoulderDummy
    direction -0.998891 -0.0402456 -0.0244411
    length 3.5433
    axis -0.00160567 0.000129431 -0.000308381 xyz
  end
  begin
    id 17
    name RightShoulder
    direction -0.999353 -0.00388479 0.0357579
    length 4.05031
    axis 1.48787 0.256014 0.157284 xyz
    dof rx ry rz
  end
  begin
    id 18
    name RightArm
    direction -0.998583 -0.000660455 -0.0532032
    length 10.3947
    axis -22.4211 -0.109147 -0.943573 xyz
    dof rx ry rz
  end
  begin
    id 19
    name RightForeArm
    direction -0.998898 0.00868588 0.0461311
    length 8.68355
    axis -9.92343 0.0658342 0.178556 xyz
    dof rx ry rz
  end
  begin
    id 20
    name RightHand
    direction -0.992843 -0.0414545 0.112004
    length 5.28593
    axis -0.00982288 0.00332907 -0.185539 xyz
    dof rx ry rz
  end
  begin
    id 21
    name LeftUpLegDummy
    direction 0.718183 -0.695806 0.00816078
    length 4.904
    axis 0 0 0 xyz
  end
  begin
    id 22
    name LeftUpLeg
    direction 0.00445374 -0.999139 0.0412407
    length 17.4976
    axis -0.593655 -0.0138231 0.255969 xyz
    dof rx ry rz
  end
  begin
    id 23
    name LeftLeg
    direction -0.00154847 -0.988829 -0.149046
    length 16.5821
    axis 6.5841 -0.0555156 0.250722 xyz
    dof rx ry rz
  end
  begin
    id 24
    name LeftFoot
    direction -0.00417678 -0.460985 0.887398
    length 3.77069
    axis 5.53694e-005 4.88088e-005 -0.000136194 xyz
    dof rx ry rz
  end
  begin
    id 25
    name LeftToes
    direction 0.00818061 -0.00485256 0.999955
    length 3.85048
    axis 6.41179e-005 4.88477e-005 -0.000136145 xyz
    dof rx ry rz
  end
:hierarchy
  begin
    root RightUpLegDummy SpineDummy LeftUpLegDummy
    RightUpLegDummy RightUpLeg
    RightUpLeg RightLeg
    RightLeg RightFoot
    RightFoot RightToes
    SpineDummy Spine
    Spine Spine1
    Spine1 HEadDummy LeftShoulder1Dummy RightShoulderDummy
    HEadDummy HEad
    LeftShoulder1Dummy LeftShoulder1
    LeftShoulder1 LeftArm
    LeftArm LeftForeArm
    LeftForeArm LeftHand
    RightShoulderDummy RightShoulder
    RightShoulder RightArm
    RightArm RightForeArm
    RightForeArm RightHand
    LeftUpLegDummy LeftUpLeg
    LeftUpLeg LeftLeg
    LeftLeg LeftFoot
    LeftFoot LeftToes
  end

:SAMPLES-PER-SECOND 30
:FULLY-SPECIFIED
:DEGREES
31
root  -0.133674 40.2767 0.264605 -173.108 -85.3298 172.96
RightUpLeg  4.60464 -6.43933 -9.74238
RightLeg  -4.43335 -9.26881 0.00967968
RightFoot  -1.26457 -0.783979 8.74901
RightToes  6.35927e-011 1.30204e-014 -6.03759e-014
Spine  -0.679278 -0.0860775 -1.04897
Spine1  0.695196 -0.0586868 0.0290624
HEad  1.90404 4.39754 -0.135864
LeftShoulder1  0.00534358 3.42884 1.50943
LeftArm  -21.3771 -3.87639 2.42802
LeftForeArm  20.0865 5.19183 -6.007
LeftHand  -0.0216838 2.85572 0.473106
RightShoulder  -0.0195642 -3.69702 -1.18706
RightArm  -26.3359 21.3387 -0.358123
RightForeArm  21.4021 -7.36527 9.00779
RightHand  -0.0459792 -2.80199 -1.42079
LeftUpLeg  7.08336 11.1244 13.8831
LeftLeg  -1.96581 22.7335 -1.51471
LeftFoot  -2.28792 0.639568 -7.88289
LeftToes  1.82556e-010 9.56953e-011 7.56925e-011
32
root  -0.118543 40.2759 0.259942 -172.959 -85.3648 172.756
RightUpLeg  4.7183 -6.44853 -9.75248
RightLeg  -4.57303 -9.26102 0.0382213
RightFoot  -1.25839 -0.778801 8.64151
RightToes  6.35927e-011 1.30204e-014 -6.03759e-014
Spine  -0.685703 -0.0213132 -1.12372
Spine1  0.74051 -0.0416017 0.266171
HEad  1.88768 4.43676 -0.26678
LeftShoulder1  0.00837471 3.39065 1.23644
LeftArm  -21.3296 -3.91886 2.42688
LeftForeArm  20.0694 5.16214 -6.04319
LeftHand  -0.0208748 2.83331 0.436054
RightShoulder  -0.0192164 -3.77012 -1.59345
RightArm  -26.1959 21.1922 0.00954724
RightForeArm  21.4141 -7.36492 9.00598
RightHand  -0.0609791 -2.53594 -1.95306
LeftUpLeg  7.09121 11.1268 13.891
LeftLeg  -1.92823 22.6928 -1.49372
LeftFoot  -2.2626 0.648804 -8.00272
LeftToes  1.82556e-010 9.56953e-011 7.56925e-011
33
root  -0.0942905 40.2751 0.259085 -172.753 -85.3504 172.534
RightUpLeg  4.63134 -6.4564 -9.77293
RightLeg  -4.44141 -9.24648 0.0127866
RightFoot  -1.24589 -0.787076 8.75067
RightToes  6.35927e-011 1.30204e-014 -6.03759e-014
Spine  -0.720906 0.0472525 -1.07677
Spine1  0.750384 0.0257205 0.280014
HEad  1.95702 4.4148 -0.317964
LeftShoulder1  0.0167468 3.27735 1.2005
LeftArm  -21.4168 -3.95191 2.34566
LeftForeArm  20.2918 5.32515 -5.98183
LeftHand  -0.0202183 2.78009 0.278035
RightShoulder  -0.0187517 -3.78475 -1.74917
RightArm  -26.4879 20.9694 0.306697
RightForeArm  21.7669 -7.32337 8.76172
RightHand  -0.0487889 -2.40542 -1.41588
LeftUpLeg  7.06487 11.1167 13.8681
LeftLeg  -1.918 22.7238 -1.48939
LeftFoot  -2.20674 0.649715 -7.99316
LeftToes  1.82556e-010 9.56953e-011 7.56925e-011
34
root  -0.0657522 40.2756 0.25342 -172.966 -85.3371 172.643
RightUpLeg  4.64797 -6.4245 -9.74039
RightLeg  -4.34065 -9.25386 -0.0459197
RightFoot  -1.22092 -0.796828 8.89494
RightToes  6.35927e-011 1.30204e-014 -6.03759e-014
Spine  -0.602114 0.0595912 -0.933069
Spine1  0.68457 0.0876032 0.0185717
HEad  2.06365 4.35125 -0.14225
LeftShoulder1  0.0237661 3.17367 1.41842
LeftArm  -21.3738 -3.88211 2.25097
LeftForeArm  20.1603 5.4709 -5.9742
LeftHand  -0.0200341 2.80875 0.23434
RightShoulder  -0.0180538 -3.78487 -1.468
RightArm  -26.5346 21.004 0.289685
RightForeArm  21.6353 -7.32339 8.75659
RightHand  -0.0392382 -2.53343 -1.05686
LeftUpLeg  7.14017 11.1222 13.892
LeftLeg  -1.93446 22.7083 -1.48135
LeftFoot  -2.1905 0.644418 -7.88829
LeftToes  1.82556e-010 9.56953e-011 7.56925e-011
35
root  -0.0485972 40.2767 0.247308 -173.142 -85.3285 172.803
RightUpLeg  4.6668 -6.42384 -9.71393
RightLeg  -4.40925 -9.28886 -0.00907187
RightFoot  -1.19801 -0.787167 8.75342
RightToes  6.35927e-011 1.30204e-014 -6.03759e-014
Spine  -0.698352 0.118225 -0.976093
Spine1  0.7185 0.103818 0.23459
HEad  2.2286 4.22665 -0.277661
LeftShoulder1  0.0299214 3.09983 1.19637
LeftArm  -21.2856 -3.82405 2.23139
LeftForeArm  19.9565 5.40882 -6.0209
LeftHand  -0.0216331 3.01498 0.110351
RightShoulder  -0.0171653 -3.77969 -1.641
RightArm  -26.3644 20.9953 0.37094
RightForeArm  21.4255 -7.33843 8.84189
RightHand  -0.042689 -2.65041 -1.22951
LeftUpLeg  7.10418 11.1305 13.9075
LeftLeg  -1.87474 22.7226 -1.44816
LeftFoot  -2.19419 0.645359 -7.89496
LeftToes  1.82556e-010 9.56953e-011 7.56925e-011
36
root  -0.0316518 40.2778 0.236611 -173.079 -85.3294 172.764
RightUpLeg  4.63464 -6.37211 -9.67534
RightLeg  -4.44926 -9.32227 -0.0324866
RightFoot  -1.20975 -0.783321 8.72561
RightToes  6.35927e-011 1.30204e-014 -6.03759e-014
Spine  -0.867736 0.118022 -1.04373
Spine1  0.859403 0.0873644 0.322475
HEad  2.2918 4.15206 -0.28769
LeftShoulder1  0.0202967 3.22737 1.27227
LeftArm  -21.2737 -3.77134 1.98062
LeftForeArm  19.8809 5.31518 -6.02873
LeftHand  -0.0213591 3.02366 0.114447
RightShoulder  -0.0163238 -3.78951 -1.49444
RightArm  -26.6455 21.1805 0.365654
RightForeArm  21.7222 -7.32295 8.75728
RightHand  -0.0551656 -2.59021 -1.7394
LeftUpLeg  7.096 11.1254 13.9148
LeftLeg  -1.97169 22.7471 -1.48176
LeftFoot  -2.09659 0.659612 -7.99483
LeftToes  1.82556e-010 9.56953e-011 7.56925e-011
37
root  -0.00972925 40.2785 0.229909 -172.544 -85.4198 172.24
RightUpLeg  4.60846 -6.39631 -9.69538
RightLeg  -4.43738 -9.3648 -0.0132653
RightFoot  -1.24166 -0.76895 8.58962
RightToes  6.35927e-011 1.30204e-014 -6.03759e-014
Spine  -0.962468 0.0467437 -0.98279
Spine1  0.883291 0.053557 0.129012
HEad  2.38497 4.12863 -0.0907373
LeftShoulder1  0.00578672 3.4225 1.53952
LeftArm  -21.3418 -3.84153 1.66972
LeftForeArm  19.826 5.28343 -6.0118
LeftHand  -0.0232119 3.21613 -0.0959767
RightShoulder  -0.0156563 -3.83281 -1.25643
RightArm  -26.624 21.2683 0.402431
RightForeArm  21.4597 -7.32875 8.7832
RightHand  -0.0511707 -2.66695 -1.5993
LeftUpLeg  7.04456 11.0584 13.847
LeftLeg  -2.04729 22.7436 -1.46354
LeftFoot  -2.02789 0.658659 -7.92943
LeftToes  1.82556e-010 9.56953e-011 7.56925e-011
38
root  0.0108994 40.2821 0.221043 -172.269 -85.5653 171.991
RightUpLeg  4.59709 -6.41189 -9.66829
RightLeg  -4.4684 -9.49365 0.0354238
RightFoot  -1.27208 -0.731671 8.19266
RightToes  6.35927e-011 1.30204e-014 -6.03759e-014
Spine  -0.957937 -0.00513499 -1.00561
Spine1  0.709892 -0.00295633 0.1587
HEad  2.4131 4.07813 -0.0552156
LeftShoulder1  0.0142432 3.30487 1.47741
LeftArm  -21.5152 -3.76634 1.64989
LeftForeArm  20.0681 5.34568 -5.89782
LeftHand  -0.0222969 3.1214 -0.278068
RightShoulder  -0.0152736 -3.83536 -1.14941
RightArm  -26.529 21.2315 0.371562
RightForeArm  21.1523 -7.3372 8.82412
RightHand  -0.0447704 -2.79722 -1.3572
LeftUpLeg  6.99043 11.0498 13.8539
LeftLeg  -2.17339 22.6087 -1.50869
LeftFoot  -1.94128 0.65732 -7.84634
LeftToes  1.82556e-010 9.56953e-011 7.56925e-011
39
root  0.0331686 40.2834 0.213856 -172.331 -85.6029 172.059
RightUpLeg  4.564 -6.3856 -9.65525
RightLeg  -4.46829 -9.51202 0.0353763
RightFoot  -1.21242 -0.752294 8.38003
RightToes  6.35927e-011 1.30204e-014 -6.03759e-014
Spine  -0.94607 0.00847686 -0.988407
Spine1  0.581188 -0.00203865 0.222499
HEad  2.29191 4.01541 0.0800144
LeftShoulder1  0.0285727 3.11364 1.29541
LeftArm  -21.5667 -3.65119 1.69595
LeftForeArm  20.296 5.4471 -5.82738
LeftHand  -0.0197503 2.88375 -0.0480282
RightShoulder  -0.0153054 -3.73911 -1.26979
RightArm  -26.4266 21.0074 0.505304
RightForeArm  20.6188 -7.33887 8.81603
RightHand  -0.0444719 -2.81846 -1.38158
LeftUpLeg  7.01255 11.0656 13.8808
LeftLeg  -2.33131 22.5741 -1.59069
LeftFoot  -1.84806 0.663722 -7.85253
LeftToes  1.82556e-010 9.56953e-011 7.56925e-011
40
root  0.0509167 40.2833 0.204802 -171.861 -85.6638 171.687
RightUpLeg  4.52832 -6.362 -9.63859
RightLeg  -4.62773 -9.70453 0.084753
RightFoot  -1.13051 -0.768288 8.49754
RightToes  6.35927e-011 1.30204e-014 -6.03759e-014
Spine  -1.10057 -0.00700042 -1.02108
Spine1  0.534148 -0.0183423 0.234971
HEad  2.15915 3.85587 0.317938
LeftShoulder1  0.0340025 3.04604 1.16926
LeftArm  -21.3359 -3.66707 1.77573
LeftForeArm  20.1845 5.49934 -5.94143
LeftHand  -0.0190133 2.86178 0.206358
RightShoulder  -0.0166533 -3.73681 -1.20233
RightArm  -26.3516 20.9715 0.534977
RightForeArm  20.5223 -7.34395 8.84425
RightHand  -0.04625 -2.7726 -1.03917
LeftUpLeg  6.98823 11.0489 13.8606
LeftLeg  -2.61259 22.5419 -1.71662
LeftFoot  -1.70154 0.670448 -7.82306
LeftToes  1.82556e-010 9.56953e-011 7.56925e-011
41
root  0.0643012 40.283 0.193699 -171.587 -85.6986 171.543
RightUpLeg  4.45191 -6.40606 -9.65504
RightLeg  -4.78329 -9.591 0.186512
RightFoot  -1.13068 -0.736611 8.14476
RightToes  6.35927e-011 1.30204e-014 -6.03759e-014
Spine  -1.29401 -0.0278383 -0.981239
Spine1  0.478753 -0.0237478 0.139812
HEad  1.99864 3.86976 0.377293
LeftShoulder1  0.0314906 3.08081 1.14665
LeftArm  -21.2906 -3.70655 1.74775
LeftForeArm  20.24 5.51781 -5.96792
LeftHand  -0.0196285 2.91176 0.0746847
RightShoulder  -0.017277 -3.67329 -1.23348
RightArm  -26.2175 20.8816 0.7283
RightForeArm  20.6625 -7.34954 8.88364
RightHand  -0.0452171 -2.70215 -1.06184
LeftUpLeg  6.93497 11.1195 13.9125
LeftLeg  -2.84458 22.4641 -1.9156
LeftFoot  -1.60599 0.679839 -7.86248
LeftToes  1.82556e-010 9.56953e-011 7.56925e-011
42
root  0.080881 40.2824 0.186178 -171.887 -85.7823 171.899
RightUpLeg  4.51028 -6.3683 -9.59138
RightLeg  -5.0388 -9.77894 0.261689
RightFoot  -0.997189 -0.753589 8.23547
RightToes  6.35927e-011 1.30204e-014 -6.03759e-014
Spine  -1.40392 -0.0854151 -0.848669
Spine1  0.487708 -0.0573277 -0.0245955
HEad  1.68169 3.82943 0.287613
LeftShoulder1  0.0200373 3.22672 1.30413
LeftArm  -21.1828 -3.85374 1.51537
LeftForeArm  19.9873 5.71484 -6.02827
LeftHand  -0.01946 2.86994 -0.0625018
RightShoulder  -0.0174232 -3.65945 -1.1898
RightArm  -26.2065 20.8894 0.922381
RightForeArm  20.5961 -7.34986 8.88339
RightHand  -0.0435822 -2.76553 -1.3267
LeftUpLeg  6.93553 11.1521 13.9783
LeftLeg  -3.05985 22.3267 -2.02024
LeftFoot  -1.52381 0.681679 -7.82382
LeftToes  1.82556e-010 9.56953e-011 7.56925e-011
